<svg width="100" height="100" viewBox="0 0 100 100" fill="none" xmlns="http://www.w3.org/2000/svg">
<path d="M49.9434 0L53.3749 14.0635L59.4059 0.903564L60.1139 15.3623L68.5265 3.5816L66.4853 17.913L76.9754 7.93732L72.2589 21.6235L84.4473 13.8133L77.2259 26.3595L90.6722 20.9972L81.2069 31.95L95.425 29.2292L84.0579 38.1928L98.5339 38.2121L85.6759 44.8624L99.8867 47.6209L86.0025 51.7177L99.4344 57.1157L85.0258 58.5109L97.1934 66.3534L82.7811 64.9965L93.2446 75L79.3495 70.9401L87.7308 82.743L74.8552 76.1268L80.8513 89.3027L69.4605 80.3693L72.8547 94.4418L63.3604 83.5141L64.03 97.9746L56.7753 85.4476L54.6962 99.7736L49.9434 86.1L45.1906 99.7736L43.1114 85.4476L35.8567 97.9746L36.5263 83.5141L27.032 94.4418L30.4262 80.3693L19.0354 89.3027L25.0315 76.1268L12.1559 82.743L20.5372 70.9401L6.64209 75L17.1056 64.9965L2.69332 66.3534L14.861 58.5109L0.452286 57.1157L13.8842 51.7177L-7.62939e-06 47.6209L14.2108 44.8624L1.35278 38.2121L15.8288 38.1928L4.46176 29.2292L18.6798 31.95L9.21456 20.9972L22.6608 26.3595L15.4394 13.8133L27.6278 21.6235L22.9113 7.93732L33.4014 17.913L31.3602 3.5816L39.7728 15.3623L40.4808 0.903564L46.5118 14.0635L49.9434 0Z" fill="#0D4FF7"/>
</svg>
