<svg width="32" height="65" viewBox="0 0 32 65" fill="none" xmlns="http://www.w3.org/2000/svg">
<path d="M15.9987 64.484C12.6907 64.484 9.99872 61.792 9.99872 58.484V22.956C7.71272 25.004 3.94872 24.914 1.75672 22.726C0.631892 21.6008 0 20.075 0 18.484C0 16.893 0.631892 15.3672 1.75672 14.242L15.9987 0L30.2407 14.242C31.3655 15.3672 31.9974 16.893 31.9974 18.484C31.9974 20.075 31.3655 21.6008 30.2407 22.726C28.0527 24.916 24.2827 25.006 21.9987 22.956V58.484C21.9987 61.792 19.3067 64.484 15.9987 64.484ZM13.9987 13.312V58.484C14.0218 58.999 14.2425 59.4852 14.6151 59.8414C14.9876 60.1977 15.4832 60.3965 15.9987 60.3965C16.5142 60.3965 17.0098 60.1977 17.3824 59.8414C17.7549 59.4852 17.9757 58.999 17.9987 58.484V13.312L24.5847 19.898C24.9655 20.2621 25.4719 20.4652 25.9987 20.4652C26.5255 20.4652 27.032 20.2621 27.4127 19.898C27.7877 19.5229 27.9983 19.0143 27.9983 18.484C27.9983 17.9537 27.7877 17.4451 27.4127 17.07L15.9987 5.656L4.58472 17.07C4.20978 17.4451 3.99915 17.9537 3.99915 18.484C3.99915 19.0143 4.20978 19.5229 4.58472 19.898C4.96545 20.2621 5.47194 20.4652 5.99872 20.4652C6.5255 20.4652 7.03198 20.2621 7.41272 19.898L13.9987 13.312Z" fill="white"/>
</svg>
