<svg width="76" height="83" viewBox="0 0 76 83" fill="none" xmlns="http://www.w3.org/2000/svg">
<g filter="url(#filter0_f_3437_5762)">
<circle cx="12.8" cy="12.8" r="7.5" fill="#1E1E1E"/>
<circle cx="40.3" cy="15.3" r="10" fill="#1E1E1E"/>
<circle cx="65.3" cy="10.3" r="5" fill="#1E1E1E"/>
<path d="M30.3 27.3C25.3555 27.3 20.522 28.7662 16.4107 31.5132C12.2995 34.2603 9.0952 38.1647 7.20301 42.7329C5.31082 47.3011 4.81574 52.3277 5.78037 57.1772C6.745 62.0268 9.12602 66.4813 12.6223 69.9776C16.1186 73.474 20.5732 75.855 25.4227 76.8196C30.2723 77.7842 35.2989 77.2892 39.8671 75.397C44.4352 73.5048 48.3397 70.3005 51.0867 66.1892C53.8338 62.078 55.3 57.2445 55.3 52.3C55.2926 45.6718 52.6564 39.3173 47.9695 34.6304C43.2827 29.9436 36.9281 27.3073 30.3 27.3ZM46.9389 62.3509H41.3833L39.1194 59.2444L41.7352 51.6194L45.381 50.4481L49.6866 53.7491C49.4636 56.7932 48.5219 59.7412 46.9389 62.3509ZM10.9134 53.7375L15.219 50.4481L18.8648 51.631L21.4806 59.2444L19.2236 62.3509H13.6681C12.0809 59.7383 11.1367 56.7862 10.9134 53.7375ZM26.5616 56.9296L24.3532 50.5014L30.3 46.4111L36.2468 50.5014L34.0384 56.9296H26.5616ZM45.2329 39.8625L43.6634 45.1518L40.0037 46.3417L33.0778 41.5801V37.8231L37.9898 34.4458C40.795 35.6592 43.276 37.5146 45.2329 39.8625ZM22.6102 34.4458L27.5222 37.8231V41.5801L20.5963 46.3417L16.9366 45.1518L15.3671 39.8625C17.324 37.5146 19.8049 35.6592 22.6102 34.4458ZM25.7537 71.2028L23.7583 65.5616L25.9921 62.4852H34.6079L36.8417 65.5616L34.8463 71.2028C31.8584 71.9249 28.7415 71.9249 25.7537 71.2028Z" fill="#1E1E1E"/>
</g>
<defs>
<filter id="filter0_f_3437_5762" x="-1.23978e-05" y="-1.23978e-05" width="80.6" height="82.6" filterUnits="userSpaceOnUse" colorInterpolationFilters="sRGB">
<feFlood floodOpacity="0" result="BackgroundImageFix"/>
<feBlend mode="normal" in="SourceGraphic" in2="BackgroundImageFix" result="shape"/>
<feGaussianBlur stdDeviation="2.65" result="effect1_foregroundBlur_3437_5762"/>
</filter>
</defs>
</svg>
