<svg width="25" height="50" viewBox="0 0 25 50" fill="none" xmlns="http://www.w3.org/2000/svg">
<path d="M12.7157 25.2093C17.1295 25.2093 20.722 21.7191 20.722 17.4272C20.722 13.1352 17.1295 9.64509 12.7157 9.64509C8.30182 9.64509 4.70929 13.1352 4.70929 17.4272C4.70929 21.7191 8.30182 25.2093 12.7157 25.2093ZM12.7157 24.1717C8.90451 24.1717 5.80832 21.1473 5.80832 17.4272C5.80832 13.7071 8.90451 10.6827 12.7157 10.6827C16.5268 10.6827 19.623 13.7071 19.623 17.4272C19.623 21.1473 16.5268 24.1717 12.7157 24.1717ZM5.2588 50H2.6294C1.18175 50 0 48.8799 0 47.5121V28.4224H1.31765C2.16261 28.4224 2.85393 27.768 2.85393 26.9721C2.85393 26.1762 2.16261 25.5218 1.31765 25.5218H0V17.5333C0 12.1094 3.79343 7.53449 8.98133 6.08419C8.18364 5.45337 7.67549 4.49829 7.67549 3.4253C7.67549 1.53873 9.24722 0 11.1853 0C13.1234 0 14.6951 1.53284 14.6951 3.4253C14.6951 5.31777 14.3642 5.07016 13.8265 5.6715C20.1075 6.30232 25 11.3725 25 17.5333C25 23.6941 19.4044 29.4659 12.503 29.4659C5.60151 29.4659 11.1853 29.4128 10.5531 29.3185C8.89861 31.7121 8.19546 33.6694 7.90002 34.8956V47.5121C7.90002 48.8799 6.71827 50 5.27062 50H5.2588Z" fill="white"/>
</svg>
