<svg width="24" height="24" viewBox="0 0 24 24" fill="none" xmlns="http://www.w3.org/2000/svg">
<g clipPath="url(#clip0_3455_3749)">
<path d="M7.0301 0.0839709C5.7533 0.144211 4.88138 0.347971 4.11914 0.647491C3.33026 0.954931 2.66162 1.36749 1.99634 2.03517C1.33106 2.70285 0.921379 3.37197 0.616099 4.16205C0.320659 4.92597 0.120499 5.79861 0.0640995 7.07613C0.00769946 8.35365 -0.00478054 8.76429 0.00145946 12.023C0.00769946 15.2817 0.0220995 15.6902 0.0840195 16.9704C0.144979 18.2469 0.348019 19.1186 0.647539 19.8811C0.955459 20.67 1.36754 21.3384 2.03546 22.0039C2.70338 22.6694 3.37202 23.0781 4.16402 23.3839C4.92722 23.6789 5.8001 23.88 7.07738 23.9359C8.35466 23.9918 8.76578 24.0048 12.0235 23.9985C15.2813 23.9923 15.6915 23.9779 16.9714 23.9172C18.2513 23.8565 19.1184 23.652 19.8811 23.3539C20.67 23.0453 21.3389 22.6339 22.0039 21.9657C22.669 21.2976 23.0784 20.628 23.3835 19.8374C23.6791 19.0742 23.88 18.2013 23.9355 16.925C23.9914 15.6441 24.0046 15.2352 23.9983 11.9769C23.9921 8.71869 23.9775 8.31021 23.9167 7.03053C23.856 5.75085 23.6527 4.88181 23.3535 4.11885C23.0451 3.32997 22.6335 2.66205 21.9658 1.99605C21.2981 1.33005 20.628 0.920851 19.8377 0.616531C19.074 0.321091 18.2016 0.119731 16.9243 0.0645309C15.6471 0.00933091 15.2359 -0.00482909 11.977 0.00141091C8.71802 0.00765091 8.31002 0.0215709 7.0301 0.0839709ZM7.17026 21.7771C6.00026 21.7262 5.36498 21.5318 4.94162 21.3691C4.38098 21.1531 3.98162 20.892 3.5597 20.4741C3.13778 20.0563 2.87858 19.6555 2.6597 19.0961C2.4953 18.6727 2.2973 18.0381 2.24258 16.8681C2.18306 15.6036 2.17058 15.2239 2.16362 12.0201C2.15666 8.81637 2.1689 8.43717 2.22434 7.17213C2.27426 6.00309 2.46986 5.36709 2.63234 4.94397C2.84834 4.38261 3.1085 3.98397 3.5273 3.56229C3.9461 3.14061 4.3457 2.88093 4.90562 2.66205C5.3285 2.49693 5.96306 2.30061 7.13258 2.24493C8.3981 2.18493 8.7773 2.17293 11.9806 2.16597C15.1839 2.15901 15.564 2.17101 16.83 2.22669C17.9991 2.27757 18.6353 2.47125 19.0579 2.63469C19.6188 2.85069 20.0179 3.11013 20.4396 3.52965C20.8613 3.94917 21.1212 4.34733 21.3401 4.90845C21.5055 5.33013 21.7018 5.96445 21.757 7.13469C21.8172 8.40021 21.8309 8.77965 21.8367 11.9827C21.8424 15.1857 21.8311 15.5661 21.7757 16.8307C21.7246 18.0007 21.5307 18.6362 21.3677 19.0601C21.1517 19.6205 20.8913 20.0201 20.4723 20.4415C20.0532 20.8629 19.6541 21.1226 19.0939 21.3415C18.6715 21.5064 18.0363 21.7032 16.8677 21.7589C15.6022 21.8184 15.223 21.8309 12.0185 21.8378C8.81402 21.8448 8.43602 21.8318 7.1705 21.7771M16.9529 5.58645C16.9534 5.87128 17.0383 6.14956 17.197 6.38612C17.3556 6.62267 17.5808 6.80686 17.8442 6.9154C18.1075 7.02393 18.3971 7.05194 18.6764 6.99587C18.9556 6.93981 19.212 6.80218 19.413 6.60041C19.614 6.39864 19.7507 6.14179 19.8058 5.86233C19.8608 5.58287 19.8317 5.29337 19.7222 5.03044C19.6127 4.7675 19.4277 4.54294 19.1906 4.38517C18.9534 4.22739 18.6748 4.14348 18.39 4.14405C18.0082 4.14481 17.6423 4.29719 17.3728 4.56768C17.1033 4.83817 16.9523 5.20462 16.9529 5.58645ZM5.8385 12.012C5.84522 15.4152 8.60906 18.1677 12.0115 18.1613C15.414 18.1548 18.1685 15.3912 18.162 11.988C18.1555 8.58477 15.391 5.83149 11.988 5.83821C8.58506 5.84493 5.83202 8.60925 5.8385 12.012ZM7.99994 12.0077C7.99837 11.2165 8.23145 10.4427 8.66968 9.784C9.10791 9.12532 9.73162 8.61139 10.4619 8.30718C11.1923 8.00298 11.9964 7.92217 12.7726 8.07498C13.5489 8.22779 14.2624 8.60735 14.8229 9.16566C15.3834 9.72397 15.7658 10.436 15.9217 11.2116C16.0776 11.9872 15.9999 12.7917 15.6986 13.5232C15.3973 14.2547 14.8859 14.8804 14.2289 15.3213C13.572 15.7621 12.7991 15.9982 12.0079 15.9998C11.4826 16.0009 10.9622 15.8985 10.4765 15.6985C9.99076 15.4984 9.54918 15.2047 9.17699 14.834C8.8048 14.4632 8.50929 14.0228 8.30733 13.5379C8.10537 13.0529 8.00092 12.533 7.99994 12.0077Z" fill="white"/>
</g>
<defs>
<clipPath id="clip0_3455_3749">
<rect width="24" height="24" fill="white"/>
</clipPath>
</defs>
</svg>
