<svg
    width="21"
    height="24"
    viewBox="0 0 21 24"
    fill="none"
    xmlns="http://www.w3.org/2000/svg"
>
<g clip-path="url(#clip0_3460_3862)">
<path
            d="M8.17693 9.45013V8.51342C7.85861 8.46947 7.53551 8.44238 7.20586 8.44238C3.23274 8.44238 0 11.707 0 15.72C0 18.1822 1.21787 20.3608 3.07656 21.678C1.87717 20.3777 1.14156 18.6361 1.14156 16.7229C1.14156 12.7678 4.2825 9.54224 8.17753 9.45013H8.17693Z"
            fill="#25F4EE"
        />
<path
            d="M8.34682 20.0467C10.1197 20.0467 11.5659 18.6223 11.6314 16.8482L11.638 1.00354H14.5041C14.4445 0.677854 14.4117 0.343141 14.4117 0H10.497L10.4905 15.8447C10.4249 17.6188 8.97871 19.0431 7.20585 19.0431C6.65504 19.0431 6.13582 18.9041 5.6792 18.6614C6.2771 19.4988 7.24878 20.0467 8.34682 20.0467Z"
            fill="#25F4EE"
        />
<path
            d="M19.8585 6.38131V5.50058C18.7652 5.50058 17.7464 5.17249 16.8922 4.60962C17.6529 5.49155 18.6859 6.12787 19.8585 6.38131Z"
            fill="#25F4EE"
        />
<path
            d="M16.8928 4.60952C16.0594 3.64331 15.5533 2.38212 15.5533 1.00293H14.5048C14.7808 2.50914 15.666 3.80164 16.8928 4.60952Z"
            fill="url(#paint0_linear_3460_3862)"
        />
<path
            d="M7.20583 12.3963C5.39125 12.3963 3.91467 13.8875 3.91467 15.72C3.91467 16.9962 4.6318 18.1051 5.67918 18.6614C5.28872 18.1147 5.05624 17.4465 5.05624 16.7229C5.05624 14.8904 6.53282 13.3993 8.3474 13.3993C8.68599 13.3993 9.01088 13.4558 9.31847 13.5528V9.51635C9.00014 9.4724 8.67705 9.44531 8.3474 9.44531C8.29017 9.44531 8.23413 9.44832 8.1775 9.44953V12.5492C7.86991 12.4523 7.54502 12.3957 7.20643 12.3957L7.20583 12.3963Z"
            fill="url(#paint1_linear_3460_3862)"
        />
<path
            d="M19.8584 6.3811V9.45372C17.8286 9.45372 15.9473 8.79814 14.4117 7.68504V15.72C14.4117 19.7329 11.1789 22.997 7.20582 22.997C5.67023 22.997 4.2467 22.5081 3.07593 21.678C4.39215 23.1053 6.26754 23.9999 8.34679 23.9999C12.3205 23.9999 15.5527 20.7352 15.5527 16.7229V8.68858C17.0882 9.80168 18.9696 10.4573 20.9994 10.4573V6.50331C20.6077 6.50331 20.2262 6.46057 19.8584 6.3811Z"
            fill="url(#paint2_linear_3460_3862)"
        />
<path
            d="M14.4117 15.7201V7.68515C15.9473 8.79825 17.8287 9.45383 19.8585 9.45383V6.38121C18.6859 6.12777 17.6528 5.49206 16.8922 4.60952C15.6654 3.80164 14.7801 2.50974 14.5041 1.00293H11.638L11.6315 16.8476C11.5659 18.6217 10.1197 20.046 8.34685 20.046C7.2488 20.046 6.27713 19.4982 5.67923 18.6608C4.63185 18.104 3.91472 16.9951 3.91472 15.7195C3.91472 13.887 5.3913 12.3958 7.20588 12.3958C7.54448 12.3958 7.86936 12.4524 8.17696 12.5493V9.44961C4.28193 9.54172 1.14099 12.7672 1.14099 16.7224C1.14099 18.6356 1.8766 20.3771 3.07599 21.6775C4.24616 22.507 5.67029 22.9965 7.20588 22.9965C11.179 22.9965 14.4117 19.7318 14.4117 15.7195V15.7201Z"
            fill="url(#paint3_linear_3460_3862)"
        />
</g>
<defs>
<linearGradient
            id="paint0_linear_3460_3862"
            x1="15.6988"
            y1="1.00293"
            x2="15.6988"
            y2="4.60952"
            gradientUnits="userSpaceOnUse"
        >
<stop stopColor="#FE2C55" />
<stop offset="1" stopColor="#3B3B3B" />
</linearGradient>
<linearGradient
            id="paint1_linear_3460_3862"
            x1="6.61657"
            y1="9.44531"
            x2="6.61657"
            y2="18.6614"
            gradientUnits="userSpaceOnUse"
        >
<stop stopColor="#FE2C55" />
<stop offset="1" stopColor="#3B3B3B" />
</linearGradient>
<linearGradient
            id="paint2_linear_3460_3862"
            x1="12.0376"
            y1="6.3811"
            x2="12.0376"
            y2="23.9999"
            gradientUnits="userSpaceOnUse"
        >
<stop stopColor="#FE2C55" />
<stop offset="1" stopColor="#3B3B3B" />
</linearGradient>
<linearGradient
            id="paint3_linear_3460_3862"
            x1="10.4997"
            y1="1.00293"
            x2="10.4997"
            y2="22.9965"
            gradientUnits="userSpaceOnUse"
        >
<stop stopColor="white" />
<stop offset="1" stopColor="#3B3B3B" />
</linearGradient>
<clipPath id="clip0_3460_3862">
<rect width="21" height="24" fill="white" />
</clipPath>
</defs>
</svg>
